<svg width="32" height="48" xmlns="http://www.w3.org/2000/svg">
 <!-- Created with Method Draw - http://github.com/duopixel/Method-Draw/ -->

 <g>
  <title>background</title>
  <rect x="-1" y="-1" width="34" height="50" id="canvas_background" fill="none"/>
  <g id="canvasGrid" display="none">
   <rect id="svg_1" width="100%" height="100%" x="0" y="0" stroke-width="0" fill="url(#gridpattern)"/>
  </g>
 </g>
 <g>
  <title>Layer 1</title>
  <g id="svg_9" transform="matrix(0.0892259959293782,0,0,0.06094163987416901,0.05126845442614325,71.04872152155572) " stroke="null"/>
  <g id="svg_10" transform="matrix(0.0892259959293782,0,0,0.06094163987416901,0.05126845442614325,71.04872152155572) " stroke="null"/>
  <g id="svg_11" transform="matrix(0.0892259959293782,0,0,0.06094163987416901,0.05126845442614325,71.04872152155572) " stroke="null"/>
  <g id="svg_12" transform="matrix(0.0892259959293782,0,0,0.06094163987416901,0.05126845442614325,71.04872152155572) " stroke="null"/>
  <g id="svg_13" transform="matrix(0.0892259959293782,0,0,0.06094163987416901,0.05126845442614325,71.04872152155572) " stroke="null"/>
  <g id="svg_14" transform="matrix(0.0892259959293782,0,0,0.06094163987416901,0.05126845442614325,71.04872152155572) " stroke="null"/>
  <g id="svg_15" transform="matrix(0.0892259959293782,0,0,0.06094163987416901,0.05126845442614325,71.04872152155572) " stroke="null"/>
  <g id="svg_16" transform="matrix(0.0892259959293782,0,0,0.06094163987416901,0.05126845442614325,71.04872152155572) " stroke="null"/>
  <g id="svg_17" transform="matrix(0.0892259959293782,0,0,0.06094163987416901,0.05126845442614325,71.04872152155572) " stroke="null"/>
  <g id="svg_18" transform="matrix(0.0892259959293782,0,0,0.06094163987416901,0.05126845442614325,71.04872152155572) " stroke="null"/>
  <g id="svg_19" transform="matrix(0.0892259959293782,0,0,0.06094163987416901,0.05126845442614325,71.04872152155572) " stroke="null"/>
  <g id="svg_20" transform="matrix(0.0892259959293782,0,0,0.06094163987416901,0.05126845442614325,71.04872152155572) " stroke="null"/>
  <g id="svg_21" transform="matrix(0.0892259959293782,0,0,0.06094163987416901,0.05126845442614325,71.04872152155572) " stroke="null"/>
  <g id="svg_22" transform="matrix(0.0892259959293782,0,0,0.06094163987416901,0.05126845442614325,71.04872152155572) " stroke="null"/>
  <g id="svg_23" transform="matrix(0.0892259959293782,0,0,0.06094163987416901,0.05126845442614325,71.04872152155572) " stroke="null"/>
  <g stroke="null" id="svg_25" transform="matrix(0.06191726789704974,0,0,0.06191726789704974,0.02751030764446985,5.056554077155766) ">
   <path stroke="null" d="m401.937853,385.085523c21.662,9.452 81.526,36.628 102.794,45.292c2.363,1.182 7.877,0.788 7.089,-4.332c-4.726,-51.2 -33.477,-344.615 -38.597,-396.603c-0.788,-7.483 -3.151,-8.665 -8.665,-10.634c-16.935,-6.302 -57.895,-20.874 -74.831,-26.782c-5.908,-2.363 -9.452,-2.363 -15.754,0c-26.388,7.483 -109.883,33.083 -109.883,33.083s-87.04,-26.388 -114.215,-33.871c-5.908,-1.969 -9.058,-2.363 -15.754,0.394c-17.329,5.514 -57.502,20.48 -74.831,26.782c-7.089,2.757 -7.877,5.908 -8.665,10.634c-5.512,50.806 -37.02,345.403 -42.534,396.997c-0.394,5.908 4.726,5.514 9.452,3.938c23.631,-9.452 83.495,-35.446 104.763,-44.111c4.332,-1.969 8.665,-3.151 15.754,0c24.025,9.846 94.523,41.748 117.76,51.2c5.12,2.363 9.846,2.757 15.754,0c23.237,-9.846 91.372,-41.354 114.215,-51.594c4.333,-2.362 11.028,-2.756 16.148,-0.393z" fill="#F4F0D3" id="svg_4"/>
   <path stroke="null" d="m144.756853,-9.942477c-3.151,-0.394 -6.302,0 -10.634,1.575c-17.329,5.514 -57.502,20.48 -74.831,26.782c-7.089,2.757 -7.877,5.908 -8.665,10.634c-5.513,50.806 -37.021,345.403 -42.535,396.997c-0.394,5.908 4.726,5.514 9.452,3.938c23.631,-9.452 83.495,-35.446 104.763,-44.111c3.151,-1.182 5.908,-2.363 10.24,-1.575c0.001,0 12.21,-394.24 12.21,-394.24zm235.126,0c-1.575,0.394 -3.151,0.788 -5.12,1.575c-26.388,7.877 -106.732,32.295 -110.277,33.477l0,413.538c2.363,0 5.12,-0.788 7.877,-1.969c23.237,-9.846 91.372,-41.354 114.215,-51.594c1.575,-0.788 3.545,-1.182 5.514,-1.575c0,0.001 -12.209,-393.452 -12.209,-393.452z" fill="#E8E4C8" id="svg_5"/>
   <path stroke="null" d="m192.017853,409.110523l68.923,-68.923l70.105,70.105c14.572,-6.695 28.751,-13.391 40.172,-18.511l-251.667,-251.274l122.092,-122.093c-12.603,-3.938 -29.145,-8.665 -44.898,-13.391l-106.339,106.339l-43.717,-43.717c-1.575,14.966 -3.545,33.083 -5.514,53.169l190.622,190.622l-79.951,79.951c11.028,4.726 25.6,11.027 40.172,17.723l0,0z" fill="#EFC75E" id="svg_6"/>
   <path stroke="null" d="m140.817853,119.239523l1.969,-60.258l-52.382,51.988l-43.716,-43.324c-1.575,14.966 -3.545,33.083 -5.514,53.169l96.886,96.886l1.575,-57.108l-19.692,-19.692l20.874,-21.661zm123.274,224.492l66.56,66.56c14.572,-6.695 28.751,-13.391 40.172,-18.511l-106.732,-106.732l0,58.683z" fill="#E3BD59" id="svg_7"/>
   <path stroke="null" d="m323.168853,-65.474477c63.015,0 114.215,51.2 114.215,114.609c0,1.182 -0.394,30.72 -10.24,51.594c-23.237,53.957 -79.163,111.065 -97.674,129.575c-4.726,4.332 -6.695,5.12 -12.603,-0.394c-18.905,-18.511 -74.043,-74.831 -97.28,-128.394c-8.271,-15.754 -10.634,-49.625 -10.634,-52.382c0.001,-63.408 51.201,-114.608 114.216,-114.608z" fill="#E2574C" id="svg_8"/>
   <path stroke="null" d="m323.168853,-10.336477c-32.689,0 -59.077,26.388 -59.077,59.077s26.388,59.077 59.077,59.077s59.077,-26.388 59.077,-59.077s-26.388,-59.077 -59.077,-59.077zm0,94.524c-19.692,0 -35.446,-15.754 -35.446,-35.446s15.754,-35.446 35.446,-35.446s35.446,15.754 35.446,35.446s-15.754,35.446 -35.446,35.446z" class="active-path" fill="#FFFFFF" id="svg_24"/>
  </g>
  <!-- Created with Method Draw - http://github.com/duopixel/Method-Draw/ -->
  <g stroke="null" transform="matrix(0.5153059060898132,0,0,0.5153059060898132,11.651577444646879,28.588778528079423) " id="svg_58">
   <title fill="#00ffff" stroke="null" transform="translate(-0.9702974557876587,0.7277230620384216) translate(7.519804954528809,10.188122749328613) translate(4.851487159729004,4.851487159729004) translate(-0.24257436394691467,-0.48514872789382935) translate(-4.851487159729004,-41.48021697998047) translate(-32.74753952026367,23.529712677001953) translate(4.851487159729004,4.851487159729004) translate(-0.24257436394691467,-0.24257436394691467) translate(-1.4554461240768433,-0.24257436394691467) translate(2.668318033218384,-5.821784496307373) translate(0.24257436394691467,0.24257436394691467) translate(23.93400001525879,-5.174919128417969) translate(-7.647467136383057,0) translate(0,-8.971200942993164) ">Layer 1</title>
   <g stroke="null" id="svg_48">
    <g stroke="null" id="svg_49" transform="matrix(0.03411170979666157,0,0,0.03411170979666157,1378.6605784198523,1058.9762344697092) ">
     <g stroke="null" id="svg_50">
      <g stroke="null" id="svg_51">
       <path stroke="null" d="m-40301.418042,-31551.478433c-102.245,0 -185.427,83.182 -185.427,185.426c0,126.888 165.939,313.167 173.004,321.035c6.636,7.391 18.222,7.378 24.846,0c7.065,-7.868 173.004,-194.147 173.004,-321.035c-0.002,-102.244 -83.183,-185.426 -185.427,-185.426zm0,278.719c-51.442,0 -93.292,-41.851 -93.292,-93.293s41.851,-93.292 93.292,-93.292s93.291,41.851 93.291,93.293s-41.85,93.292 -93.291,93.292z" class="active-path" fill="#00ffff" id="svg_52"/>
      </g>
     </g>
    </g>
   </g>
   <ellipse stroke="#ffffff" fill="#00ffff" stroke-width="1.5" cx="3.910286" cy="-10.777312" id="svg_47" rx="3.3125" ry="3.3125"/>
  </g>
  <rect stroke="null" id="svg_67" height="16.5" width="10.5" y="-1.187501" x="-0.25" stroke-opacity="null" stroke-width="null" fill="none"/>
  <g fill="#fff" transform="matrix(0.5153059060898132,0,0,0.5153059060898132,11.651577444646879,28.588778528079423) " id="svg_75">
   <title fill="#00007f" id="svg_68" stroke="null" transform="translate(-0.24257436394691467,-0.24257436394691467) translate(-1.4554461240768433,-0.24257436394691467) translate(2.668318033218384,-5.821784496307373) translate(0.24257436394691467,0.24257436394691467) translate(23.93400001525879,-5.174919128417969) translate(-7.647467136383057,0) translate(0,-8.971200942993164) ">Layer 1</title>
   <g stroke="null" id="svg_73">
    <g stroke="null" id="svg_72" transform="matrix(0.03411170979666157,0,0,0.03411170979666157,1378.6605784198523,1058.9762344697092) ">
     <g stroke="null" id="svg_71">
      <g stroke="null" id="svg_70">
       <path stroke="null" d="m-39668.523389,-31615.478952c-102.245,0 -185.427,83.182 -185.427,185.426c0,126.888 165.939,313.167 173.004,321.035c6.636,7.391 18.222,7.378 24.846,0c7.065,-7.868 173.004,-194.147 173.004,-321.035c-0.002,-102.244 -83.183,-185.426 -185.427,-185.426zm0,278.719c-51.442,0 -93.292,-41.851 -93.292,-93.293s41.851,-93.292 93.292,-93.292s93.291,41.851 93.291,93.293s-41.85,93.292 -93.291,93.292z" class="active-path" fill="#00007f" id="svg_69"/>
      </g>
     </g>
    </g>
   </g>
   <ellipse stroke="#ffffff" fill="#00007f" stroke-width="1.5" cx="25.499405" cy="-12.960479" id="svg_74" rx="3.3125" ry="3.3125"/>
  </g>
  <g stroke="null" transform="matrix(0.5153059060898132,0,0,0.5153059060898132,11.651577444646879,28.588778528079423) " id="svg_83">
   <title id="svg_76" fill="#00bf5f" stroke="null" transform="translate(-0.24257436394691467,-0.48514872789382935) translate(-4.851487159729004,-41.48021697998047) translate(-32.74753952026367,23.529712677001953) translate(4.851487159729004,4.851487159729004) translate(-0.24257436394691467,-0.24257436394691467) translate(-1.4554461240768433,-0.24257436394691467) translate(2.668318033218384,-5.821784496307373) translate(0.24257436394691467,0.24257436394691467) translate(23.93400001525879,-5.174919128417969) translate(-7.647467136383057,0) translate(0,-8.971200942993164) ">Layer 1</title>
   <g stroke="null" id="svg_81">
    <g stroke="null" id="svg_80" transform="matrix(0.03411170979666157,0,0,0.03411170979666157,1378.6605784198523,1058.9762344697092) ">
     <g stroke="null" id="svg_79">
      <g stroke="null" id="svg_78">
       <path stroke="null" d="m-40635.643293,-32013.704843c-102.245,0 -185.427,83.182 -185.427,185.426c0,126.888 165.939,313.167 173.004,321.035c6.636,7.391 18.222,7.378 24.846,0c7.065,-7.868 173.004,-194.147 173.004,-321.035c-0.002,-102.244 -83.183,-185.426 -185.427,-185.426zm0,278.719c-51.442,0 -93.292,-41.851 -93.292,-93.293s41.851,-93.292 93.292,-93.292s93.291,41.851 93.291,93.293s-41.85,93.292 -93.291,93.292z" class="active-path" fill="#00bf5f" id="svg_77"/>
      </g>
     </g>
    </g>
   </g>
   <ellipse stroke="#ffffff" fill="#00bf5f" stroke-width="1.5" cx="-7.490709" cy="-26.544645" id="svg_82" rx="3.3125" ry="3.3125"/>
  </g>
 </g>
</svg>