<svg width="32" height="48" xmlns="http://www.w3.org/2000/svg">
 <!-- Created with Method Draw - http://github.com/duopixel/Method-Draw/ -->

 <g>
  <title>background</title>
  <rect fill="#fff" id="canvas_background" height="50" width="34" y="-1" x="-1"/>
  <g display="none" overflow="visible" y="0" x="0" height="100%" width="100%" id="canvasGrid">
   <rect fill="url(#gridpattern)" stroke-width="0" y="0" x="0" height="100%" width="100%"/>
  </g>
 </g>
 <g>
  <title>Layer 1</title>
  <g stroke="null" id="svg_36">
   <g stroke="null" transform="matrix(0.06588688530009726,0,0,0.06588688530009726,0.05126845442614325,3.217742762835769) " id="svg_29">
    <path stroke="null" id="svg_30" fill="#F4F0D3" d="m384.016293,413.10552c21.662,9.452 81.526,36.628 102.794,45.292c2.363,1.182 7.877,0.788 7.089,-4.332c-4.726,-51.2 -33.477,-344.615 -38.597,-396.603c-0.788,-7.483 -3.151,-8.665 -8.665,-10.634c-16.935,-6.302 -57.895,-20.874 -74.831,-26.782c-5.908,-2.363 -9.452,-2.363 -15.754,0c-26.388,7.483 -109.883,33.083 -109.883,33.083s-87.04,-26.388 -114.215,-33.871c-5.908,-1.969 -9.058,-2.363 -15.754,0.394c-17.329,5.514 -57.502,20.48 -74.831,26.782c-7.089,2.757 -7.877,5.908 -8.665,10.634c-5.512,50.806 -37.02,345.403 -42.534,396.997c-0.394,5.908 4.726,5.514 9.452,3.938c23.631,-9.452 83.495,-35.446 104.763,-44.111c4.332,-1.969 8.665,-3.151 15.754,0c24.025,9.846 94.523,41.748 117.76,51.2c5.12,2.363 9.846,2.757 15.754,0c23.237,-9.846 91.372,-41.354 114.215,-51.594c4.333,-2.362 11.028,-2.756 16.148,-0.393z"/>
    <path stroke="null" id="svg_31" fill="#E8E4C8" d="m126.835293,18.07752c-3.151,-0.394 -6.302,0 -10.634,1.575c-17.329,5.514 -57.502,20.48 -74.831,26.782c-7.089,2.757 -7.877,5.908 -8.665,10.634c-5.513,50.806 -37.021,345.403 -42.535,396.997c-0.394,5.908 4.726,5.514 9.452,3.938c23.631,-9.452 83.495,-35.446 104.763,-44.111c3.151,-1.182 5.908,-2.363 10.24,-1.575c0.001,0 12.21,-394.24 12.21,-394.24zm235.126,0c-1.575,0.394 -3.151,0.788 -5.12,1.575c-26.388,7.877 -106.732,32.295 -110.277,33.477l0,413.538c2.363,0 5.12,-0.788 7.877,-1.969c23.237,-9.846 91.372,-41.354 114.215,-51.594c1.575,-0.788 3.545,-1.182 5.514,-1.575c0,0.001 -12.209,-393.452 -12.209,-393.452z"/>
    <path stroke="null" id="svg_32" fill="#EFC75E" d="m174.096293,437.13052l68.923,-68.923l70.105,70.105c14.572,-6.695 28.751,-13.391 40.172,-18.511l-251.667,-251.274l122.092,-122.093c-12.603,-3.938 -29.145,-8.665 -44.898,-13.391l-106.339,106.339l-43.717,-43.717c-1.575,14.966 -3.545,33.083 -5.514,53.169l190.622,190.622l-79.951,79.951c11.028,4.726 25.6,11.027 40.172,17.723l0,0z"/>
    <path stroke="null" id="svg_33" fill="#E3BD59" d="m122.896293,147.25952l1.969,-60.258l-52.382,51.988l-43.716,-43.324c-1.575,14.966 -3.545,33.083 -5.514,53.169l96.886,96.886l1.575,-57.108l-19.692,-19.692l20.874,-21.661zm123.274,224.492l66.56,66.56c14.572,-6.695 28.751,-13.391 40.172,-18.511l-106.732,-106.732l0,58.683z"/>
    <path stroke="null" id="svg_34" fill="#E2574C" d="m305.247293,-37.45448c63.015,0 114.215,51.2 114.215,114.609c0,1.182 -0.394,30.72 -10.24,51.594c-23.237,53.957 -79.163,111.065 -97.674,129.575c-4.726,4.332 -6.695,5.12 -12.603,-0.394c-18.905,-18.511 -74.043,-74.831 -97.28,-128.394c-8.271,-15.754 -10.634,-49.625 -10.634,-52.382c0.001,-63.408 51.201,-114.608 114.216,-114.608z"/>
    <path stroke="null" id="svg_35" fill="#FFFFFF" class="active-path" d="m305.247293,17.68352c-32.689,0 -59.077,26.388 -59.077,59.077s26.388,59.077 59.077,59.077s59.077,-26.388 59.077,-59.077s-26.388,-59.077 -59.077,-59.077zm0,94.524c-19.692,0 -35.446,-15.754 -35.446,-35.446s15.754,-35.446 35.446,-35.446s35.446,15.754 35.446,35.446s-15.754,35.446 -35.446,35.446z"/>
   </g>
  </g>
  <g stroke="null" transform="matrix(0.0892259959293782,0,0,0.06094163987416901,0.05126845442614325,71.04872152155572) " id="svg_9"/>
  <g stroke="null" transform="matrix(0.0892259959293782,0,0,0.06094163987416901,0.05126845442614325,71.04872152155572) " id="svg_10"/>
  <g stroke="null" transform="matrix(0.0892259959293782,0,0,0.06094163987416901,0.05126845442614325,71.04872152155572) " id="svg_11"/>
  <g stroke="null" transform="matrix(0.0892259959293782,0,0,0.06094163987416901,0.05126845442614325,71.04872152155572) " id="svg_12"/>
  <g stroke="null" transform="matrix(0.0892259959293782,0,0,0.06094163987416901,0.05126845442614325,71.04872152155572) " id="svg_13"/>
  <g stroke="null" transform="matrix(0.0892259959293782,0,0,0.06094163987416901,0.05126845442614325,71.04872152155572) " id="svg_14"/>
  <g stroke="null" transform="matrix(0.0892259959293782,0,0,0.06094163987416901,0.05126845442614325,71.04872152155572) " id="svg_15"/>
  <g stroke="null" transform="matrix(0.0892259959293782,0,0,0.06094163987416901,0.05126845442614325,71.04872152155572) " id="svg_16"/>
  <g stroke="null" transform="matrix(0.0892259959293782,0,0,0.06094163987416901,0.05126845442614325,71.04872152155572) " id="svg_17"/>
  <g stroke="null" transform="matrix(0.0892259959293782,0,0,0.06094163987416901,0.05126845442614325,71.04872152155572) " id="svg_18"/>
  <g stroke="null" transform="matrix(0.0892259959293782,0,0,0.06094163987416901,0.05126845442614325,71.04872152155572) " id="svg_19"/>
  <g stroke="null" transform="matrix(0.0892259959293782,0,0,0.06094163987416901,0.05126845442614325,71.04872152155572) " id="svg_20"/>
  <g stroke="null" transform="matrix(0.0892259959293782,0,0,0.06094163987416901,0.05126845442614325,71.04872152155572) " id="svg_21"/>
  <g stroke="null" transform="matrix(0.0892259959293782,0,0,0.06094163987416901,0.05126845442614325,71.04872152155572) " id="svg_22"/>
  <g stroke="null" transform="matrix(0.0892259959293782,0,0,0.06094163987416901,0.05126845442614325,71.04872152155572) " id="svg_23"/>
  <path id="svg_45" d="m13.687503,41.812477" opacity="0.5" fill-opacity="null" stroke-opacity="null" stroke-width="0" stroke="null" fill="null"/>
  <g stroke="null" id="svg_53">
   <g stroke="null" transform="matrix(0.08246256750586674,0,0,0.08246256750586674,0,17.746318231612804) " id="svg_51">
    <polygon stroke="null" id="svg_52" fill="#3b3d3d" class="active-path" points="323.388427734375,74.72649765014648 152.20941925048828,245.86750030517578 85.66841888427734,179.34749603271484 33.348419189453125,231.66649627685547 152.21041870117188,350.5115280151367 375.7054138183594,127.04650115966797 "/>
   </g>
   <polyline stroke-linecap="round" id="svg_54" points="-47.875,-18.375 -48.375,-17.625 -48.375,-15.875 -47.625,-13.125 -45.875,-9.625 -43.375,-4.625 -39.625,1.125 -34.625,8.125 -29.125,16.625 -22.375,25.375 -11.875,37.375 -4.625,43.375 2.375,48.125 10.125,51.875 18.125,55.125 25.875,57.875 33.875,59.625 40.375,61.125 45.625,61.875 49.375,62.125 51.125,62.125 51.625,62.375 51.875,62.375 " opacity="0.5" stroke-opacity="null" stroke-width="0" stroke="null" fill="none"/>
  </g>
 </g>
</svg>