<svg width="32" height="37" xmlns="http://www.w3.org/2000/svg">
 <!-- Created with Method Draw - http://github.com/duopixel/Method-Draw/ -->

 <g>
  <title>background</title>
  <rect fill="#ffffff" id="canvas_background" height="39" width="34" y="-1" x="-1"/>
  <g display="none" overflow="visible" y="0" x="0" height="100%" width="100%" id="canvasGrid">
   <rect fill="url(#gridpattern)" stroke-width="0" y="0" x="0" height="100%" width="100%"/>
  </g>
 </g>
 <g>
  <title>Layer 1</title>
  <line stroke="#4c4c4c" stroke-linecap="undefined" stroke-linejoin="undefined" id="svg_28" y2="28.197637" x2="24.01462" y1="28.197637" x1="0.749997" stroke-width="8.5" fill="none"/>
  <line stroke="#ffffff" stroke-dasharray="5,5" stroke-linecap="undefined" stroke-linejoin="undefined" id="svg_27" y2="28.197637" x2="24.033709" y1="28.197637" x1="0.769087" stroke-width="2" fill="none"/>
  <g stroke="null" id="svg_65">
   <polygon stroke="null" id="svg_42" fill="#FFD15C" points="22.04806923866272,16.654829263687134 18.349966287612915,20.35293221473694 13.404789209365845,21.34197449684143 10.179706811904907,21.986974954605103 10.824705362319946,18.761892557144165 11.813750505447388,13.816715478897095 15.511852502822876,10.11861252784729 "/>
   <polygon stroke="null" id="svg_43" fill="#FF7058" points="18.95195984840393,16.482807397842407 15.081838846206665,17.084845781326294 15.683874368667603,13.214722871780396 23.897096872329712,5.001454591751099 27.165226221084595,8.26958441734314 "/>
   <g stroke="null" transform="matrix(0.04115357536196093,0,0,0.04115357536196093,20.246427975628873,5.081813607197185) " id="svg_44">
    <polygon stroke="null" id="svg_45" fill="#F1543F" points="207.8274917602539,117.16634368896484 -46.08252716064453,371.07633209228516 -31.45453643798828,277.0353317260742 168.1214370727539,77.4603500366211 "/>
    <polygon stroke="null" id="svg_46" fill="#F1543F" points="88.70845794677734,-1.9526519775390625 -110.86653900146484,197.62334442138672 -204.90753173828125,212.25133514404297 49.002464294433594,-41.658653259277344 "/>
   </g>
   <polygon stroke="null" id="svg_47" fill="#334A5E" points="13.404789209365845,21.34197449684143 10.179706811904907,21.986974954605103 10.824705362319946,18.761892557144165 "/>
   <path stroke="null" id="svg_48" fill="#40596B" d="m30.562332,6.936537l-5.332186,-5.332186c-0.344003,-0.344003 -0.860027,-0.344003 -1.20403,0l-1.76306,1.76306l6.536175,6.536175l1.76306,-1.76306c0.344044,-0.343962 0.344044,-0.859986 0.000041,-1.203989z"/>
   <rect stroke="null" id="svg_49" fill="#F2F2F2" height="224.651" width="21.943" transform="matrix(-0.029099693138442576,0.029099693138442576,-0.029099693138442576,-0.029099693138442576,50.5073392039873,2.4971550758741614) " y="245.714294" x="478.479798"/>
   <g stroke="null" transform="matrix(0.04115357536196093,0,0,0.04115357536196093,20.246427975628873,5.081813607197185) " id="svg_50"/>
   <g stroke="null" transform="matrix(0.04115357536196093,0,0,0.04115357536196093,20.246427975628873,5.081813607197185) " id="svg_51"/>
   <g stroke="null" transform="matrix(0.04115357536196093,0,0,0.04115357536196093,20.246427975628873,5.081813607197185) " id="svg_52"/>
   <g stroke="null" transform="matrix(0.04115357536196093,0,0,0.04115357536196093,20.246427975628873,5.081813607197185) " id="svg_53"/>
   <g stroke="null" transform="matrix(0.04115357536196093,0,0,0.04115357536196093,20.246427975628873,5.081813607197185) " id="svg_54"/>
   <g stroke="null" transform="matrix(0.04115357536196093,0,0,0.04115357536196093,20.246427975628873,5.081813607197185) " id="svg_55"/>
   <g stroke="null" transform="matrix(0.04115357536196093,0,0,0.04115357536196093,20.246427975628873,5.081813607197185) " id="svg_56"/>
   <g stroke="null" transform="matrix(0.04115357536196093,0,0,0.04115357536196093,20.246427975628873,5.081813607197185) " id="svg_57"/>
   <g stroke="null" transform="matrix(0.04115357536196093,0,0,0.04115357536196093,20.246427975628873,5.081813607197185) " id="svg_58"/>
   <g stroke="null" transform="matrix(0.04115357536196093,0,0,0.04115357536196093,20.246427975628873,5.081813607197185) " id="svg_59"/>
   <g stroke="null" transform="matrix(0.04115357536196093,0,0,0.04115357536196093,20.246427975628873,5.081813607197185) " id="svg_60"/>
   <g stroke="null" transform="matrix(0.04115357536196093,0,0,0.04115357536196093,20.246427975628873,5.081813607197185) " id="svg_61"/>
   <g stroke="null" transform="matrix(0.04115357536196093,0,0,0.04115357536196093,20.246427975628873,5.081813607197185) " id="svg_62"/>
   <g stroke="null" transform="matrix(0.04115357536196093,0,0,0.04115357536196093,20.246427975628873,5.081813607197185) " id="svg_63"/>
   <g stroke="null" transform="matrix(0.04115357536196093,0,0,0.04115357536196093,20.246427975628873,5.081813607197185) " id="svg_64"/>
  </g>
 </g>
</svg>