<svg width="32" height="32" xmlns="http://www.w3.org/2000/svg">
 <!-- Created with Method Draw - http://github.com/duopixel/Method-Draw/ -->

 <g>
  <title>background</title>
  <rect fill="none" id="canvas_background" height="34" width="34" y="-1" x="-1"/>
  <g display="none" overflow="visible" y="0" x="0" height="100%" width="100%" id="canvasGrid">
   <rect fill="url(#gridpattern)" stroke-width="0" y="1" x="1" height="400" width="580"/>
  </g>
 </g>
 <g>
  <title>Layer 1</title>
  <g stroke="null" id="svg_12">
   <g stroke="null" transform="matrix(0.07956625767686254,0,0,0.07765080525959883,-60.886524038944785,0.3303678035736084) " id="svg_7">
    <g stroke="null" id="svg_8">
     <g stroke="null" id="svg_5">
      <g stroke="null" id="svg_9">
       <path stroke="null" id="svg_10" fill="#000000" class="active-path" d="m966.318088,126.450121c-21.628,0 -42.307,9.249 -56.732,25.373c-12.506,13.966 -19.394,31.992 -19.394,50.757c0,41.978 34.15,76.131 76.126,76.131c19.275,0 37.666,-7.218 51.783,-20.324c14.042,-13.035 22.603,-30.697 24.107,-49.729c0.159,-1.995 0.24,-4.04 0.24,-6.079c0,-41.977 -34.151,-76.129 -76.13,-76.129zm55.748,81.603c-2.789,28.813 -26.755,50.54 -55.747,50.54c-30.887,0 -56.015,-25.128 -56.015,-56.014c0,-13.807 5.067,-27.07 14.27,-37.347c10.622,-11.863 25.837,-18.667 41.745,-18.667c30.886,0 56.014,25.128 56.014,56.014c-0.001,1.845 -0.09,3.684 -0.267,5.474z"/>
       <path stroke="null" id="svg_11" fill="#000000" class="active-path" d="m1153.093088,183.642121c0,0 -23.424,0 -31.231,0c-1.063,0 -1.153,-0.907 -1.212,-1.359c-9.054,-69.522 -63.976,-124.62 -133.41,-133.949c-0.919,-0.124 -2.766,-0.305 -2.766,-2.138c0,-7.794 0,-31.173 0,-31.173c0,-4.95 -4.05,-9 -9,-9l-18.307,0c-4.95,0 -9,4.05 -9,9c0,0 0,23.378 0,31.171c0,1.502 -1.847,2.014 -2.767,2.137c-37.612,5.052 -70.972,23.53 -95.079,50.474c-20.343,22.72 -34.102,51.451 -38.296,83.197c-0.072,0.546 -0.226,1.641 -1.371,1.641c-7.777,0 -31.107,0 -31.107,0c-4.95,0 -9,4.05 -9,9l0,18.307c0,4.95 4.05,9 9,9c0,0 23.198,0 30.931,0c1.197,0 1.291,1.121 1.359,1.68c8.598,70.449 64.25,126.353 134.575,135.331c0.584,0.074 1.755,0.485 1.755,1.314c0,7.574 0,30.294 0,30.294c0,4.95 4.05,9 9,9l18.307,0c4.95,0 9,-4.05 9,-9c0,0 0,-22.718 0,-30.29c0,-0.875 1.342,-1.26 2.011,-1.347c70.364,-9.104 125.984,-65.192 134.377,-135.785c0.047,-0.398 0.063,-1.197 1.179,-1.197c7.763,0 31.053,0 31.053,0c4.95,0 9,-4.05 9,-9l0,-18.307c-0.001,-4.951 -4.05,-9.001 -9.001,-9.001zm-168.619,142.144c0,-1.257 0,-5.027 0,-5.027c0,-4.95 -4.05,-9 -9,-9l-18.307,0c-4.95,0 -9,4.05 -9,9c0,0 0,3.765 0,5.02c0,1.5 -1.993,1.376 -2.984,1.209c-53.454,-9.014 -95.485,-51.637 -103.614,-105.387c-0.083,-0.549 -0.52,-1.651 0.694,-1.651l5.094,0c4.95,0 9,-4.05 9,-9l0,-18.307c0,-4.95 -4.05,-9 -9,-9l-4.87,0c-0.938,0 -0.832,-0.658 -0.78,-0.986c3.88,-24.454 14.778,-46.568 30.573,-64.208c18.76,-20.952 44.423,-35.593 73.412,-40.36c0.822,-0.135 2.475,-0.497 2.475,0.608c0,1.034 0,4.137 0,4.137c0,4.95 4.05,9 9,9l18.307,0c4.95,0 9,-4.05 9,-9c0,0 0,-3.102 0,-4.137c0,-1.042 1.762,-0.727 2.638,-0.582c52.823,8.759 94.556,50.318 103.57,103.048c0.141,0.824 0.43,2.479 -1.195,2.479c-1.051,0 -4.204,0 -4.204,0c-4.95,0 -9,4.05 -9,9l0,18.307c0,4.95 4.05,9 9,9c0,0 3.314,0 4.419,0c1.597,0 1.383,1.483 1.269,2.222c-8.356,53.63 -50.48,96.075 -103.957,104.898c-0.844,0.14 -2.54,0.273 -2.54,-1.283z"/>
      </g>
     </g>
    </g>
   </g>
  </g>
 </g>
</svg>